<svg width="339" height="139" viewBox="0 0 339 139" fill="none" xmlns="http://www.w3.org/2000/svg">
<g filter="url(#filter0_d)">
<path fill-rule="evenodd" clip-rule="evenodd" d="M45.8944 9.00751C41.1389 9.83921 36.6653 11.5359 32.4485 14.1005L32.4361 14.108C26.3832 17.7578 21.5818 22.8127 18.0221 29.3615L18.014 29.3763C16.2437 32.5977 14.8795 36.0821 13.9285 39.841C13.0196 43.5506 12.5598 47.441 12.5598 51.5209C12.5598 55.7418 13.0754 59.4949 14.0623 62.8102C15.0557 66.1478 16.4402 68.8832 18.161 71.0882C19.8749 73.2843 21.8942 74.9372 24.2302 76.101C26.5274 77.2076 29.1495 77.794 32.1679 77.794C35.2519 77.794 38.0099 77.1336 40.5085 75.8467L40.526 75.8377C41.3849 75.401 42.2088 74.8957 42.9977 74.3188C41.6233 74.7009 40.1788 74.9005 38.6645 74.9005C33.6733 74.9005 29.6636 72.6754 27.0546 68.5016L27.0402 68.4786L27.0261 68.4553C24.6343 64.5005 23.6631 59.1705 23.6631 52.9097C23.6631 45.1597 25.1085 37.7478 28.0079 30.7026C29.3535 27.3677 30.9803 24.2581 32.8935 21.3822C34.8063 18.4683 36.924 15.9167 39.26 13.7573C41.3496 11.8238 43.5592 10.2277 45.8944 9.00751ZM65.3945 11.0267C66.7875 12.9544 67.368 15.2818 67.368 17.7245C67.368 20.4209 66.7019 23.0615 65.4698 25.6153C65.0179 26.552 64.5095 27.4408 63.9357 28.2609C64.5924 28.4898 65.2773 28.6042 66.0096 28.6042C66.7544 28.6042 67.4116 28.4539 68.028 28.1623L68.0504 28.1517L68.0729 28.1415C68.7236 27.8439 69.2676 27.4294 69.7346 26.8657C70.7642 25.5935 71.4432 23.7568 71.4432 21.0232C71.4432 19.0218 71.0383 17.3425 70.3066 15.9087L70.3002 15.8961L70.2939 15.8835C69.545 14.3877 68.466 13.1034 66.9998 12.0143C66.5124 11.6649 65.9784 11.3349 65.3945 11.0267ZM44.6353 82.0826C44.4314 82.1935 44.2258 82.3017 44.0184 82.4073C42.3872 83.2468 40.6897 83.8948 38.9317 84.3545C39.6466 84.7247 40.3275 85.1607 40.9692 85.6677C41.8816 86.3781 42.6459 87.1776 43.2633 88.0531L44.6353 82.0826ZM37.3902 92.9061C37.1584 92.3225 36.7792 91.8651 36.2593 91.4618L36.2441 91.45L36.229 91.438C35.2335 90.6494 33.6775 90.0625 31.1638 90.0625C29.4206 90.0625 27.8052 90.3891 26.2825 91.0328L26.2536 91.045L26.2245 91.0567C24.6957 91.6735 23.4108 92.5372 22.3301 93.6533L22.3284 93.6551C21.1563 94.864 20.2523 96.2289 19.6035 97.7689C18.9708 99.3084 18.643 100.973 18.643 102.794C18.643 104.647 19.0115 106.293 19.7125 107.781C20.4238 109.291 21.4205 110.571 22.7294 111.649C23.1259 111.976 23.55 112.284 24.0034 112.573C22.0987 110.291 21.2417 107.503 21.2417 104.472C21.2417 101.153 22.2668 98.1263 24.5692 95.745C26.8532 93.3374 29.8866 92.2616 33.231 92.2616C34.6613 92.2616 36.0534 92.4748 37.3902 92.9061ZM39.8075 114.635C43.772 113.678 47.0869 111.574 49.8661 108.305C53.996 103.369 57.4688 95.3746 60.0124 83.8948L67.8809 48.5317L61.2214 48.4777C59.1786 56.0738 56.5624 62.2204 53.2463 66.7092C52.774 67.3505 52.2844 67.9597 51.7775 68.5348H55.4976L48.4362 99.2633C48.4361 99.2641 48.4359 99.2649 48.4357 99.2657M39.8075 114.635C40.9908 113.838 42.0672 112.834 43.0305 111.651ZM39.08 103.786C38.471 105.125 37.8183 106.187 37.1441 107.003L37.135 107.014L37.1259 107.025C35.7118 108.764 34.3371 109.333 32.8766 109.333C31.6336 109.333 30.8122 108.948 30.1021 108.158L30.0706 108.123L30.0381 108.089C29.2941 107.302 28.8014 106.209 28.8014 104.472C28.8014 102.707 29.3068 101.612 30.0636 100.833L30.0818 100.814L30.0997 100.795C30.7271 100.13 31.6236 99.669 33.231 99.669C34.0885 99.669 34.8559 99.8335 35.5732 100.151L35.5935 100.16L35.6139 100.169C36.3514 100.485 36.8157 100.866 37.1316 101.273L39.08 103.786ZM23.9468 83.9664C22.8934 83.6278 21.8669 83.2183 20.8692 82.7361L20.8506 82.7272L20.8321 82.718C17.4279 81.0273 14.532 78.6324 12.1558 75.5878C9.78181 72.5459 8.01634 68.9541 6.80489 64.8843C5.58681 60.7922 5 56.3277 5 51.5209C5 46.8861 5.52351 42.4087 6.58121 38.0973L6.58724 38.0727C7.68285 33.7373 9.26933 29.6666 11.3537 25.8721C15.5098 18.2288 21.2177 12.1764 28.4678 7.80321C35.9225 3.27086 44.1128 1 52.9572 1C56.6212 1 60.0388 1.41582 63.179 2.2915C66.3238 3.11939 69.1254 4.35274 71.4959 6.05924L71.5159 6.07363L71.5357 6.08827C73.9145 7.84835 75.7801 10.0275 77.0751 12.6093C78.3862 15.1842 79.0029 18.0143 79.0029 21.0232C79.0029 24.9952 77.9923 28.5959 75.6403 31.49L75.6239 31.5101C74.4444 32.9411 72.9906 34.063 71.2926 34.8435C69.6316 35.6252 67.8553 36.0116 66.0096 36.0116C63.9634 36.0116 61.9958 35.5853 60.1478 34.7331L60.107 34.7144L60.0668 34.6947C58.1889 33.7746 56.6087 32.4665 55.3552 30.811L52.9866 27.683L56.2941 25.5225C56.9543 25.0912 57.7914 24.1986 58.6352 22.4495C59.4506 20.7596 59.8082 19.1949 59.8082 17.7245C59.8082 16.0726 59.345 15.3498 58.9078 14.9571L58.8674 14.9208L58.8282 14.8834C58.3746 14.4517 57.4668 13.963 55.4968 13.963C53.7465 13.963 51.958 14.3583 50.0996 15.2208C48.2179 16.1126 46.3317 17.4019 44.4492 19.144L44.4476 19.1455C42.6129 20.8414 40.8743 22.9158 39.2454 25.3986L39.2319 25.4191C37.6067 27.8609 36.2055 30.5308 35.0337 33.4372L35.0286 33.4498L35.0235 33.4623C32.4926 39.608 31.2229 46.0809 31.2229 52.9097C31.2229 58.59 32.1356 62.3588 33.5159 64.6561C34.7632 66.6384 36.3414 67.4931 38.6645 67.4931C41.5405 67.4931 44.3485 66.1319 47.1164 62.3742L47.1199 62.3694C50.0071 58.4627 52.5578 52.4061 54.5926 43.9044L55.2825 41.022L77.2497 41.1999L67.4 85.4664C67.3998 85.4674 67.3996 85.4685 67.3993 85.4696M23.9468 83.9664C23.7355 84.047 23.5252 84.1314 23.3159 84.2195C20.841 85.2226 18.6714 86.6696 16.8458 88.5551M149.942 9.31726C149.075 9.51117 148.231 9.74278 147.409 10.0113C144.492 10.9641 142.007 12.2847 139.91 13.9481C137.831 15.597 136.278 17.4954 135.194 19.651L135.184 19.6702C134.121 21.7525 133.575 24.0364 133.575 26.5787C133.575 29.8895 134.642 33.4332 137.034 37.2597L137.04 37.2687C138.057 38.9057 139.206 40.5153 140.49 42.0972C141.825 43.7413 143.501 45.7055 145.527 47.9957L145.528 47.9972C147.811 50.581 149.619 52.705 150.934 54.3532C152.312 55.9927 153.571 57.6795 154.709 59.4139L154.718 59.4286L154.728 59.4433C157.681 64.0395 159.325 68.7284 159.325 73.4537C159.325 75.9747 158.872 78.4 157.946 80.6998C157.057 82.9678 155.752 84.971 154.025 86.6629C152.336 88.3173 150.361 89.6168 148.134 90.5656L148.102 90.5792L148.07 90.5922C145.772 91.5222 143.33 91.9723 140.78 91.9723C136.496 91.9723 132.677 90.7202 129.746 87.903L129.721 87.8783L129.696 87.8532C126.813 84.974 125.543 81.2072 125.543 76.9838C125.543 74.7438 125.933 72.6005 126.77 70.6012L126.786 70.5639L126.802 70.527C127.674 68.5672 128.907 66.8545 130.507 65.4411C132.38 63.7812 134.564 62.6455 136.984 61.9675C135.847 61.2312 134.36 60.7801 132.335 60.7801C130.615 60.7801 129.009 61.1387 127.476 61.8612L127.449 61.8738L127.422 61.886C125.862 62.5916 124.491 63.5901 123.292 64.9151C122.1 66.2334 121.133 67.8244 120.416 69.7352C119.748 71.5812 119.4 73.5836 119.4 75.7686C119.4 78.3726 119.894 80.6523 120.824 82.6645C121.799 84.6914 123.196 86.4514 125.059 87.9615L125.071 87.9716L125.083 87.9819C126.907 89.4865 129.132 90.6743 131.821 91.5083L131.842 91.5147L131.863 91.5213C134.531 92.3818 137.608 92.8403 141.135 92.8403C145.273 92.8403 149.105 92.2243 152.654 91.019C156.227 89.8059 159.298 88.1119 161.911 85.9564L161.922 85.9471L161.933 85.938C164.525 83.8329 166.48 81.3981 167.847 78.6232C169.205 75.8299 169.897 72.7923 169.897 69.4607C169.897 66.2336 169.327 63.3704 168.242 60.823C166.271 56.2396 162.833 51.3564 157.75 46.1875C155.414 43.897 153.231 41.5806 151.204 39.2378C148.857 36.6072 146.973 33.9896 145.62 31.3824C144.179 28.6045 143.438 25.6585 143.438 22.5857C143.438 20.4903 143.748 18.479 144.409 16.5836L144.424 16.5426L144.439 16.502C145.137 14.6459 146.132 12.9718 147.444 11.5243C148.188 10.6787 149.023 9.94185 149.942 9.31726ZM167.668 10.728C169.722 12.9643 170.606 15.8061 170.606 18.882C170.606 21.478 170.027 23.9596 168.87 26.2822C168.454 27.1319 167.973 27.9304 167.427 28.6734C167.984 28.8637 168.587 28.9514 169.247 28.9514C169.992 28.9514 170.65 28.8011 171.266 28.5095L171.288 28.499L171.311 28.4887C171.948 28.1971 172.452 27.8 172.866 27.2719L172.886 27.2473L172.905 27.223C173.951 25.9358 174.622 24.1266 174.622 21.4861C174.622 19.486 174.217 17.7761 173.473 16.2886L173.46 16.2631L173.448 16.2375C172.725 14.7358 171.668 13.4292 170.219 12.303C169.446 11.7138 168.598 11.187 167.668 10.728ZM145.019 2.98404C148.746 1.76647 152.717 1.17361 156.904 1.17361C163.988 1.17361 170.102 2.81903 174.88 6.47083L174.89 6.47904L174.901 6.48733C177.219 8.28547 179.029 10.4784 180.273 13.0517C181.567 15.6468 182.182 18.4807 182.182 21.4861C182.182 25.3935 181.165 28.9381 178.839 31.8133C177.686 33.2728 176.236 34.4068 174.531 35.1907C172.87 35.9724 171.093 36.3588 169.247 36.3588C164.973 36.3588 161.412 34.5328 158.841 31.1736L156.525 28.1483L159.66 25.9428C160.647 25.2485 161.448 24.3197 162.058 23.071L162.065 23.056L162.072 23.041C162.722 21.7413 163.046 20.37 163.046 18.882C163.046 17.1077 162.539 16.1411 161.885 15.5161L161.867 15.4993L161.85 15.4823C161.181 14.8269 160.126 14.3102 158.203 14.3102C157.069 14.3102 156.09 14.5096 155.222 14.871C154.404 15.2274 153.729 15.7217 153.159 16.3733L153.134 16.4017L153.109 16.4297C152.473 17.1272 151.946 17.9767 151.548 19.0221C151.195 20.0491 150.998 21.2268 150.998 22.5857C150.998 24.4511 151.438 26.2505 152.359 28.025C153.365 29.9628 154.86 32.0829 156.914 34.3829L156.933 34.4049L156.953 34.4272C158.85 36.6214 160.906 38.8037 163.12 40.9737L163.145 40.9975L163.168 41.0217C168.702 46.6443 172.775 52.2838 175.212 57.954L175.216 57.9637C176.728 61.5109 177.457 65.3593 177.457 69.4607C177.457 69.5198 177.457 69.5789 177.456 69.6379L186.679 27.0417H211.84L210.691 32.2978C213.404 31.3428 216.289 30.8611 219.331 30.8611C224.674 30.8611 229.3 32.4879 232.653 36.1381L232.669 36.155L232.684 36.172C235.988 39.859 237.529 44.9873 237.823 51.0299C240.098 46.4731 242.927 42.5508 246.345 39.3161C252.512 33.4076 259.97 30.3982 268.528 30.3982C274.533 30.3982 279.639 32.2669 283.123 36.5116C285.848 39.8307 287.257 44.2202 287.692 49.3409C288.906 49.1357 290.286 48.7752 291.841 48.2305L292.853 43.5926H288.867L291.438 31.4398H295.431L299.007 15.4433L324.862 12.0154L320.579 31.4398H327.748L325.328 43.5926H318.008L310.875 76.3542L310.826 76.5105C310.66 77.0372 310.52 77.9102 310.52 79.2408C310.52 79.5027 310.535 79.7041 310.554 79.854C310.796 79.8983 311.15 79.9352 311.643 79.9352C312.249 79.9352 312.841 79.8122 313.451 79.5387C314.181 79.1897 314.872 78.7092 315.525 78.0686C316.933 76.6897 318.114 74.748 318.957 72.0721L319.78 69.4607H333L331.21 74.4029C328.93 80.6995 325.995 85.9312 322.304 89.9393L322.283 89.9626L322.261 89.9855C319.144 93.2581 315.553 95.6845 311.493 97.1763C308.539 98.2619 305.45 98.801 302.252 98.801C297.609 98.801 293.511 97.429 290.415 94.3505C286.969 90.9678 285.538 86.28 285.538 80.919C285.538 78.3555 285.897 75.5057 286.564 72.4014L286.566 72.3896L288.849 61.9352C288.275 62.0772 287.696 62.2109 287.111 62.3361C286.521 66.9172 285.493 71.2056 284.009 75.1873L284.005 75.1971C282.231 79.9152 279.917 84.0609 277.025 87.5815L277.014 87.5948C274.154 91.0435 270.819 93.7598 267.002 95.6742C263.164 97.5995 259.07 98.5695 254.767 98.5695C248.203 98.5695 242.562 97.0017 238.383 93.3571C234.732 90.2006 232.684 85.9157 231.941 80.8504C230.107 84.5651 227.876 87.7672 225.214 90.4039C225.211 90.4065 225.209 90.409 225.206 90.4116L222.52 87.8056L225.214 90.4039C225.214 90.4041 225.214 90.4038 225.214 90.4039C219.589 96.0038 212.541 98.801 204.329 98.801C201.469 98.801 198.808 98.4108 196.487 97.4701L197.154 94.393L197.419 93.8241L197.164 94.3478L197.75 91.6423L194.053 90.8727L190.853 92.8437C192.075 94.7488 193.733 96.2381 195.818 97.1789C196.037 97.2813 196.26 97.3783 196.487 97.4701L190.994 122.807L164.603 129L174.947 81.2254C174.857 81.4239 174.763 81.6215 174.668 81.8184L174.66 81.8337C172.801 85.611 170.153 88.8813 166.766 91.6339C163.397 94.411 159.504 96.5327 155.129 98.0181C150.725 99.5135 146.052 100.248 141.135 100.248C136.952 100.248 133.066 99.7052 129.518 98.5636C126.002 97.4704 122.884 95.8476 120.227 93.6585C117.534 91.4722 115.434 88.8443 113.971 85.7922L113.961 85.7713L113.951 85.7502C112.525 82.6748 111.841 79.3285 111.841 75.7686C111.841 72.7902 112.318 69.9369 113.3 67.2349L113.306 67.2184L113.312 67.2019C114.327 64.4905 115.76 62.0745 117.635 60.0017C119.501 57.9389 121.704 56.3182 124.227 55.1727C126.78 53.9744 129.497 53.3727 132.335 53.3727C135.822 53.3727 139.028 54.2376 141.719 56.175C144.463 58.1503 146.156 60.9016 146.797 64.1959L147.651 68.5926H143.084C139.555 68.5926 137.198 69.4989 135.579 70.934L135.572 70.9405C134.823 71.6012 134.213 72.4207 133.749 73.4496C133.336 74.4514 133.102 75.6142 133.102 76.9838C133.102 79.6863 133.869 81.4311 135.067 82.6405C136.309 83.8212 138.075 84.5649 140.78 84.5649C142.392 84.5649 143.837 84.2863 145.153 83.7585C146.534 83.1657 147.698 82.3866 148.679 81.4251C149.625 80.4982 150.365 79.3827 150.893 78.0319L150.901 78.0126L150.909 77.9934C151.473 76.5953 151.766 75.0922 151.766 73.4537C151.766 70.4669 150.735 67.1358 148.34 63.4044C147.363 61.9169 146.274 60.4581 145.07 59.0283L145.037 58.9896L145.006 58.9501C143.803 57.4401 142.079 55.4108 139.812 52.8454C137.744 50.5065 135.995 48.459 134.574 46.7084C133.103 44.8961 131.772 43.0345 130.584 41.1231C127.624 36.3867 126.015 31.5219 126.015 26.5787C126.015 22.9514 126.806 19.5283 128.418 16.3659C130.011 13.202 132.275 10.4745 135.154 8.19076C138.018 5.91901 141.321 4.19174 145.019 2.98404ZM232.437 67.5091C232.437 67.5078 232.437 67.5065 232.437 67.5052L236.163 68.1297L232.436 67.5131C232.436 67.5118 232.436 67.5105 232.437 67.5091ZM297.204 59.0766L293.961 73.9274C293.961 73.9301 293.96 73.9327 293.96 73.9354C293.368 76.6917 293.098 79.0091 293.098 80.919C293.098 85.0439 294.183 87.567 295.77 89.1219L295.782 89.1333L295.793 89.1448C297.185 90.5319 299.184 91.3936 302.252 91.3936C304.566 91.3936 306.754 91.0067 308.839 90.2405C310.843 89.5039 312.731 88.4328 314.504 86.9969C313.574 87.2257 312.618 87.3426 311.643 87.3426C309.572 87.3426 307.216 86.9776 305.415 85.4771L305.378 85.4467L305.342 85.4153C303.4 83.7126 302.961 81.2553 302.961 79.2408C302.961 77.5529 303.122 75.9413 303.548 74.5048L308.647 51.0876L307.824 51.9339C305.076 54.7611 301.611 57.0756 297.528 58.9295C297.42 58.9789 297.312 59.0279 297.204 59.0766ZM309.034 49.3087L311.312 38.8472H311.211L315.197 20.7717L305.26 22.0891L302.109 36.1852H302.201L300.495 44.0008C300.954 43.7102 301.409 43.4109 301.859 43.1028L306.056 40.2299L309.034 49.3087ZM280.693 55.9453L280.281 55.8107V53.0255C280.281 47.1168 279.053 43.3713 277.233 41.154C276.442 40.1902 275.439 39.3962 274.153 38.8237C274.935 39.3461 275.577 40.0161 276.078 40.7796L276.105 40.8196L276.13 40.8603C277.3 42.7495 277.747 45.311 277.912 47.9369L278.075 50.5298L275.642 51.5627C275.18 51.7588 274.858 52.0331 274.594 52.4592C274.372 52.8178 274.139 53.4572 274.139 54.588C274.139 55.2702 274.234 55.6759 274.315 55.8963C274.367 55.9197 274.452 55.9524 274.581 55.9862L277.798 56.8268L277.354 60.0597C276.856 63.6749 276.106 67.0968 275.094 70.3184C274.085 73.5312 272.862 76.4133 271.4 78.9311C269.954 81.4213 268.305 83.5414 266.4 85.1622L266.394 85.1671C264.498 86.7739 262.217 87.9213 259.61 87.9213C258.155 87.9213 256.678 87.767 255.35 87.2879L255.27 87.2587L255.19 87.226C253.746 86.6301 252.579 85.6593 251.72 84.4188C250.793 83.1369 250.279 81.6149 249.989 80.0969L249.978 80.0417L249.97 79.9861C249.73 78.4871 249.629 76.6748 249.629 74.6111C249.629 70.1292 250.454 65.1516 252.015 59.7187L252.016 59.715C253.625 54.1354 255.727 49.3036 258.378 45.2956C260.69 41.7314 263.626 38.7087 267.327 37.831C261.287 38.0898 256.105 40.3223 251.623 44.6196L251.604 44.6371C247.603 48.4211 244.403 53.5949 242.111 60.331L242.105 60.3512L242.097 60.3713C241.099 63.1977 240.365 65.9889 239.89 68.7462L239.889 68.7541C239.405 71.5238 239.175 73.9926 239.175 76.1736C239.175 81.9409 240.796 85.5658 243.388 87.8053L243.403 87.8188C245.76 89.8776 249.367 91.1621 254.767 91.1621C257.867 91.1621 260.781 90.4731 263.558 89.0805C266.354 87.6781 268.883 85.6512 271.141 82.9301C273.444 80.1255 275.379 76.7126 276.911 72.6389C278.434 68.5499 279.434 63.9779 279.882 58.8991L280.134 56.0366L280.693 55.9453ZM202.489 34.4491H192.804L174.482 119.065L184.591 116.693L192.292 81.1688L192.324 81.2176L199.572 47.5833L199.643 47.4626L202.489 34.4491ZM212.775 39.4428C214.789 39.6799 216.672 40.4937 218.151 42.0643L218.196 42.1117L218.239 42.1607C220.598 44.8473 221.339 48.7485 221.339 52.9097C221.339 57.567 220.771 62.2491 219.644 66.9508L219.642 66.9609C218.244 72.7218 216.326 77.5072 213.736 81.0884C210.43 85.6936 206.041 88.5 200.609 88.5C199.219 88.5 197.793 88.2812 196.474 87.6867L197.253 88.9017C197.758 89.6881 198.333 90.1612 198.991 90.4557L199.021 90.4691L199.05 90.4829C200.193 91.0185 201.89 91.3936 204.329 91.3936C210.608 91.3936 215.686 89.3297 219.826 85.2077L219.834 85.1996C223.238 81.8318 226.013 76.9116 227.982 70.1768L227.985 70.1663C229.531 64.9366 230.316 59.3062 230.316 53.257C230.316 47.0889 228.977 43.2741 227.018 41.0763C225.41 39.3353 223.032 38.2685 219.331 38.2685C216.993 38.2685 214.815 38.6564 212.775 39.4428ZM269.532 44.9815C268.867 44.9815 267.194 45.5083 264.751 49.2809L264.74 49.2967L264.73 49.3125C262.583 52.5546 260.75 56.6681 259.291 61.7295C257.86 66.7117 257.189 70.9922 257.189 74.6111C257.189 76.4468 257.28 77.819 257.43 78.7863C257.606 79.6753 257.822 80.0461 257.891 80.1394L257.932 80.1957L257.971 80.2535C258.015 80.3173 258.046 80.3509 258.071 80.3701C258.304 80.4324 258.783 80.5139 259.61 80.5139C259.838 80.5139 260.43 80.427 261.445 79.5678C262.532 78.6424 263.677 77.252 264.83 75.268C265.966 73.3105 266.988 70.9458 267.869 68.14C268.515 66.0808 269.047 63.9 269.462 61.595C268.828 61.0867 268.267 60.4641 267.814 59.7129L267.781 59.6581L267.75 59.6023C266.885 58.05 266.579 56.308 266.579 54.588C266.579 52.478 267.016 50.4168 268.132 48.6149C268.683 47.7257 269.353 46.9487 270.132 46.2938C270.023 45.672 269.902 45.2525 269.801 44.9899C269.728 44.9849 269.639 44.9815 269.532 44.9815ZM211.476 46.7755C210.949 46.7755 210.203 46.9479 209.181 47.6331C208.351 48.1896 207.514 49.0342 206.717 50.2839L200.083 81.0633C200.223 81.0807 200.397 81.0926 200.609 81.0926C202.97 81.0926 205.273 80.0053 207.557 76.8215L207.565 76.8096C209.383 74.2971 211.006 70.5223 212.285 65.2565C213.284 61.0851 213.779 56.9713 213.779 52.9097C213.779 49.3775 213.102 47.7157 212.555 47.0464C212.439 46.9379 212.189 46.7755 211.476 46.7755ZM77.9422 55.051H109.769L106.165 71.7755H74.0196L77.9422 55.051ZM83.9616 62.4584L83.5137 64.3681H100.035L100.446 62.4584H83.9616Z" fill="black"/>
<path d="M39.8075 114.635C43.772 113.678 47.0869 111.574 49.8661 108.305C53.996 103.369 57.4688 95.3746 60.0124 83.8948L67.8809 48.5317L61.2214 48.4777C59.1786 56.0738 56.5624 62.2204 53.2463 66.7092C52.774 67.3505 52.2844 67.9597 51.7775 68.5348H55.4976L48.4362 99.2633C48.4361 99.2641 48.4359 99.2649 48.4357 99.2657L39.8075 114.635ZM39.8075 114.635C40.9908 113.838 42.0672 112.834 43.0305 111.651L39.8075 114.635ZM23.9468 83.9664C22.8934 83.6278 21.8669 83.2183 20.8692 82.7361L20.8506 82.7272L20.8321 82.718C17.4279 81.0273 14.532 78.6324 12.1558 75.5878C9.78181 72.5459 8.01634 68.9541 6.80489 64.8843C5.58681 60.7922 5 56.3277 5 51.5209C5 46.8861 5.52351 42.4087 6.58121 38.0973L6.58724 38.0727C7.68285 33.7373 9.26933 29.6666 11.3537 25.8721C15.5098 18.2288 21.2177 12.1764 28.4678 7.80321C35.9225 3.27086 44.1128 1 52.9572 1C56.6212 1 60.0388 1.41582 63.179 2.2915C66.3238 3.11939 69.1254 4.35274 71.4959 6.05924L71.5159 6.07363L71.5357 6.08827C73.9145 7.84835 75.7801 10.0275 77.0751 12.6093C78.3862 15.1842 79.0029 18.0143 79.0029 21.0232C79.0029 24.9952 77.9923 28.5959 75.6403 31.49L75.6239 31.5101C74.4444 32.9411 72.9906 34.063 71.2926 34.8435C69.6316 35.6252 67.8553 36.0116 66.0096 36.0116C63.9634 36.0116 61.9958 35.5853 60.1478 34.7331L60.107 34.7144L60.0668 34.6947C58.1889 33.7746 56.6087 32.4665 55.3552 30.811L52.9866 27.683L56.2941 25.5225C56.9543 25.0912 57.7914 24.1986 58.6352 22.4495C59.4506 20.7596 59.8082 19.1949 59.8082 17.7245C59.8082 16.0726 59.345 15.3498 58.9078 14.9571L58.8674 14.9208L58.8282 14.8834C58.3746 14.4517 57.4668 13.963 55.4968 13.963C53.7465 13.963 51.958 14.3583 50.0996 15.2208C48.2179 16.1126 46.3317 17.4019 44.4492 19.144L44.4476 19.1455C42.6129 20.8414 40.8743 22.9158 39.2454 25.3986L39.2319 25.4191C37.6067 27.8609 36.2055 30.5308 35.0337 33.4372L35.0286 33.4498L35.0235 33.4623C32.4926 39.608 31.2229 46.0809 31.2229 52.9097C31.2229 58.59 32.1356 62.3588 33.5159 64.6561C34.7632 66.6384 36.3414 67.4931 38.6645 67.4931C41.5405 67.4931 44.3485 66.1319 47.1164 62.3742L47.1199 62.3694C50.0071 58.4627 52.5578 52.4061 54.5926 43.9044L55.2825 41.022L77.2497 41.1999L67.4 85.4664C67.3998 85.4674 67.3996 85.4685 67.3993 85.4696L23.9468 83.9664ZM23.9468 83.9664C23.7355 84.047 23.5252 84.1314 23.3159 84.2195C20.841 85.2226 18.6714 86.6696 16.8458 88.5551L23.9468 83.9664ZM225.214 90.4039C227.876 87.7672 230.107 84.5651 231.941 80.8504C232.684 85.9157 234.732 90.2006 238.383 93.3571C242.562 97.0017 248.203 98.5695 254.767 98.5695C259.07 98.5695 263.164 97.5995 267.002 95.6742C270.819 93.7598 274.154 91.0435 277.014 87.5948L277.025 87.5815C279.917 84.0609 282.231 79.9152 284.005 75.1971L284.009 75.1873C285.493 71.2056 286.521 66.9172 287.111 62.3361C287.696 62.2109 288.275 62.0772 288.849 61.9352L286.566 72.3896L286.564 72.4014C285.897 75.5057 285.538 78.3555 285.538 80.919C285.538 86.28 286.969 90.9678 290.415 94.3505C293.511 97.429 297.609 98.801 302.252 98.801C305.45 98.801 308.539 98.2619 311.493 97.1763C315.553 95.6845 319.144 93.2581 322.261 89.9855L322.283 89.9626L322.304 89.9393C325.995 85.9312 328.93 80.6995 331.21 74.4029L333 69.4607H319.78L318.957 72.0721C318.114 74.748 316.933 76.6897 315.525 78.0686C314.872 78.7092 314.181 79.1897 313.451 79.5387C312.841 79.8122 312.249 79.9352 311.643 79.9352C311.15 79.9352 310.796 79.8983 310.554 79.854C310.535 79.7041 310.52 79.5027 310.52 79.2408C310.52 77.9102 310.66 77.0372 310.826 76.5105L310.875 76.3542L318.008 43.5926H325.328L327.748 31.4398H320.579L324.862 12.0154L299.007 15.4433L295.431 31.4398H291.438L288.867 43.5926H292.853L291.841 48.2305C290.286 48.7752 288.906 49.1357 287.692 49.3409C287.257 44.2202 285.848 39.8307 283.123 36.5116C279.639 32.2669 274.533 30.3982 268.528 30.3982C259.97 30.3982 252.512 33.4076 246.345 39.3161C242.927 42.5508 240.098 46.4731 237.823 51.0299C237.529 44.9873 235.988 39.859 232.684 36.172L232.669 36.155L232.653 36.1381C229.3 32.4879 224.674 30.8611 219.331 30.8611C216.289 30.8611 213.404 31.3428 210.691 32.2978L211.84 27.0417H186.679L177.456 69.6379C177.457 69.5789 177.457 69.5198 177.457 69.4607C177.457 65.3593 176.728 61.5109 175.216 57.9637L175.212 57.954C172.775 52.2838 168.702 46.6443 163.168 41.0217L163.145 40.9975L163.12 40.9737C160.906 38.8037 158.85 36.6214 156.953 34.4272L156.933 34.4049L156.914 34.3829C154.86 32.0829 153.365 29.9628 152.359 28.025C151.438 26.2505 150.998 24.4511 150.998 22.5857C150.998 21.2268 151.195 20.0491 151.548 19.0221C151.946 17.9767 152.473 17.1272 153.109 16.4297L153.134 16.4017L153.159 16.3733C153.729 15.7217 154.404 15.2274 155.222 14.871C156.09 14.5096 157.069 14.3102 158.203 14.3102C160.126 14.3102 161.181 14.8269 161.85 15.4823L161.867 15.4993L161.885 15.5161C162.539 16.1411 163.046 17.1077 163.046 18.882C163.046 20.37 162.722 21.7413 162.072 23.041L162.065 23.056L162.058 23.071C161.448 24.3197 160.647 25.2485 159.66 25.9428L156.525 28.1483L158.841 31.1736C161.412 34.5328 164.973 36.3588 169.247 36.3588C171.093 36.3588 172.87 35.9724 174.531 35.1907C176.236 34.4068 177.686 33.2728 178.839 31.8133C181.165 28.9381 182.182 25.3935 182.182 21.4861C182.182 18.4807 181.567 15.6468 180.273 13.0517C179.029 10.4784 177.219 8.28547 174.901 6.48733L174.89 6.47904L174.88 6.47083C170.102 2.81903 163.988 1.17361 156.904 1.17361C152.717 1.17361 148.746 1.76647 145.019 2.98404C141.321 4.19174 138.018 5.91901 135.154 8.19076C132.275 10.4745 130.011 13.202 128.418 16.3659C126.806 19.5283 126.015 22.9514 126.015 26.5787C126.015 31.5219 127.624 36.3867 130.584 41.1231C131.772 43.0345 133.103 44.8961 134.574 46.7084C135.995 48.459 137.744 50.5065 139.812 52.8454C142.079 55.4108 143.803 57.4401 145.006 58.9501L145.037 58.9896L145.07 59.0283C146.274 60.4581 147.363 61.9169 148.34 63.4044C150.735 67.1358 151.766 70.4669 151.766 73.4537C151.766 75.0922 151.473 76.5953 150.909 77.9934L150.901 78.0126L150.893 78.0319C150.365 79.3827 149.625 80.4982 148.679 81.4251C147.698 82.3866 146.534 83.1657 145.153 83.7585C143.837 84.2863 142.392 84.5649 140.78 84.5649C138.075 84.5649 136.309 83.8212 135.067 82.6405C133.869 81.4311 133.102 79.6863 133.102 76.9838C133.102 75.6142 133.336 74.4514 133.749 73.4496C134.213 72.4207 134.823 71.6012 135.572 70.9405L135.579 70.934C137.198 69.4989 139.555 68.5926 143.084 68.5926H147.651L146.797 64.1959C146.156 60.9016 144.463 58.1503 141.719 56.175C139.028 54.2376 135.822 53.3727 132.335 53.3727C129.497 53.3727 126.78 53.9744 124.227 55.1727C121.704 56.3182 119.501 57.9389 117.635 60.0017C115.76 62.0745 114.327 64.4905 113.312 67.2019L113.306 67.2184L113.3 67.2349C112.318 69.9369 111.841 72.7902 111.841 75.7686C111.841 79.3285 112.525 82.6748 113.951 85.7502L113.961 85.7713L113.971 85.7922C115.434 88.8443 117.534 91.4722 120.227 93.6585C122.884 95.8476 126.002 97.4704 129.518 98.5636C133.066 99.7052 136.952 100.248 141.135 100.248C146.052 100.248 150.725 99.5135 155.129 98.0181C159.504 96.5327 163.397 94.411 166.766 91.6339C170.153 88.8813 172.801 85.611 174.66 81.8337L174.668 81.8184C174.763 81.6215 174.857 81.4239 174.947 81.2254L164.603 129L190.994 122.807L196.487 97.4701M225.214 90.4039C225.211 90.4065 225.209 90.409 225.206 90.4116L222.52 87.8056L225.214 90.4039ZM225.214 90.4039C225.214 90.4038 225.214 90.4041 225.214 90.4039ZM225.214 90.4039C219.589 96.0038 212.541 98.801 204.329 98.801C201.469 98.801 198.808 98.4108 196.487 97.4701M196.487 97.4701L197.154 94.393L197.419 93.8241L197.164 94.3478L197.75 91.6423L194.053 90.8727L190.853 92.8437C192.075 94.7488 193.733 96.2381 195.818 97.1789C196.037 97.2813 196.26 97.3783 196.487 97.4701ZM32.4485 14.1005C36.6653 11.5359 41.1389 9.83921 45.8944 9.00751C43.5592 10.2277 41.3496 11.8238 39.26 13.7573C36.924 15.9167 34.8063 18.4683 32.8935 21.3822C30.9803 24.2581 29.3535 27.3677 28.0079 30.7026C25.1085 37.7478 23.6631 45.1597 23.6631 52.9097C23.6631 59.1705 24.6343 64.5005 27.0261 68.4553L27.0402 68.4786L27.0546 68.5016C29.6636 72.6754 33.6733 74.9005 38.6645 74.9005C40.1788 74.9005 41.6233 74.7009 42.9977 74.3188C42.2088 74.8957 41.3849 75.401 40.526 75.8377L40.5085 75.8467C38.0099 77.1336 35.2519 77.794 32.1679 77.794C29.1495 77.794 26.5274 77.2076 24.2302 76.101C21.8942 74.9372 19.8749 73.2843 18.161 71.0882C16.4402 68.8832 15.0557 66.1478 14.0623 62.8102C13.0754 59.4949 12.5598 55.7418 12.5598 51.5209C12.5598 47.441 13.0196 43.5506 13.9285 39.841C14.8795 36.0821 16.2437 32.5977 18.014 29.3763L18.0221 29.3615C21.5818 22.8127 26.3832 17.7578 32.4361 14.108L32.4485 14.1005ZM67.368 17.7245C67.368 15.2818 66.7875 12.9544 65.3945 11.0267C65.9784 11.3349 66.5124 11.6649 66.9998 12.0143C68.466 13.1034 69.545 14.3877 70.2939 15.8835L70.3002 15.8961L70.3066 15.9087C71.0383 17.3425 71.4432 19.0218 71.4432 21.0232C71.4432 23.7568 70.7642 25.5935 69.7346 26.8657C69.2676 27.4294 68.7236 27.8439 68.0729 28.1415L68.0504 28.1517L68.028 28.1623C67.4116 28.4539 66.7544 28.6042 66.0096 28.6042C65.2773 28.6042 64.5924 28.4898 63.9357 28.2609C64.5095 27.4408 65.0179 26.552 65.4698 25.6153C66.7019 23.0615 67.368 20.4209 67.368 17.7245ZM44.0184 82.4073C44.2258 82.3017 44.4314 82.1935 44.6353 82.0826L43.2633 88.0531C42.6459 87.1776 41.8816 86.3781 40.9692 85.6677C40.3275 85.1607 39.6466 84.7247 38.9317 84.3545C40.6897 83.8948 42.3872 83.2468 44.0184 82.4073ZM36.2593 91.4618C36.7792 91.8651 37.1584 92.3225 37.3902 92.9061C36.0534 92.4748 34.6613 92.2616 33.231 92.2616C29.8866 92.2616 26.8532 93.3374 24.5692 95.745C22.2668 98.1263 21.2417 101.153 21.2417 104.472C21.2417 107.503 22.0987 110.291 24.0034 112.573C23.55 112.284 23.1259 111.976 22.7294 111.649C21.4205 110.571 20.4238 109.291 19.7125 107.781C19.0115 106.293 18.643 104.647 18.643 102.794C18.643 100.973 18.9708 99.3084 19.6035 97.7689C20.2523 96.2289 21.1563 94.864 22.3284 93.6551L22.3301 93.6533C23.4108 92.5372 24.6957 91.6735 26.2245 91.0567L26.2536 91.045L26.2825 91.0328C27.8052 90.3891 29.4206 90.0625 31.1638 90.0625C33.6775 90.0625 35.2335 90.6494 36.229 91.438L36.2441 91.45L36.2593 91.4618ZM39.08 103.786C38.471 105.125 37.8183 106.187 37.1441 107.003L37.135 107.014L37.1259 107.025C35.7118 108.764 34.3371 109.333 32.8766 109.333C31.6336 109.333 30.8122 108.948 30.1021 108.158L30.0706 108.123L30.0381 108.089C29.2941 107.302 28.8014 106.209 28.8014 104.472C28.8014 102.707 29.3068 101.612 30.0636 100.833L30.0818 100.814L30.0997 100.795C30.7271 100.13 31.6236 99.669 33.231 99.669C34.0885 99.669 34.8559 99.8335 35.5732 100.151L35.5935 100.16L35.6139 100.169C36.3514 100.485 36.8157 100.866 37.1316 101.273L39.08 103.786ZM147.409 10.0113C148.231 9.74278 149.075 9.51117 149.942 9.31726C149.023 9.94185 148.188 10.6787 147.444 11.5243C146.132 12.9718 145.137 14.6459 144.439 16.502L144.424 16.5426L144.409 16.5836C143.748 18.479 143.438 20.4903 143.438 22.5857C143.438 25.6585 144.179 28.6045 145.62 31.3824C146.973 33.9896 148.857 36.6072 151.204 39.2378C153.231 41.5806 155.414 43.897 157.75 46.1875C162.833 51.3564 166.271 56.2396 168.242 60.823C169.327 63.3704 169.897 66.2336 169.897 69.4607C169.897 72.7923 169.205 75.8299 167.847 78.6232C166.48 81.3981 164.525 83.8329 161.933 85.938L161.922 85.9471L161.911 85.9564C159.298 88.1119 156.227 89.8059 152.654 91.019C149.105 92.2243 145.273 92.8403 141.135 92.8403C137.608 92.8403 134.531 92.3818 131.863 91.5213L131.842 91.5147L131.821 91.5083C129.132 90.6743 126.907 89.4865 125.083 87.9819L125.071 87.9716L125.059 87.9615C123.196 86.4514 121.799 84.6914 120.824 82.6645C119.894 80.6523 119.4 78.3726 119.4 75.7686C119.4 73.5836 119.748 71.5812 120.416 69.7352C121.133 67.8244 122.1 66.2334 123.292 64.9151C124.491 63.5901 125.862 62.5916 127.422 61.886L127.449 61.8738L127.476 61.8612C129.009 61.1387 130.615 60.7801 132.335 60.7801C134.36 60.7801 135.847 61.2312 136.984 61.9675C134.564 62.6455 132.38 63.7812 130.507 65.4411C128.907 66.8545 127.674 68.5672 126.802 70.527L126.786 70.5639L126.77 70.6012C125.933 72.6005 125.543 74.7438 125.543 76.9838C125.543 81.2072 126.813 84.974 129.696 87.8532L129.721 87.8783L129.746 87.903C132.677 90.7202 136.496 91.9723 140.78 91.9723C143.33 91.9723 145.772 91.5222 148.07 90.5922L148.102 90.5792L148.134 90.5656C150.361 89.6168 152.336 88.3173 154.025 86.6629C155.752 84.971 157.057 82.9678 157.946 80.6998C158.872 78.4 159.325 75.9747 159.325 73.4537C159.325 68.7284 157.681 64.0395 154.728 59.4433L154.718 59.4286L154.709 59.4139C153.571 57.6795 152.312 55.9927 150.934 54.3532C149.619 52.705 147.811 50.581 145.528 47.9972L145.527 47.9957C143.501 45.7055 141.825 43.7413 140.49 42.0972C139.206 40.5153 138.057 38.9057 137.04 37.2687L137.034 37.2597C134.642 33.4332 133.575 29.8895 133.575 26.5787C133.575 24.0364 134.121 21.7525 135.184 19.6702L135.194 19.651C136.278 17.4954 137.831 15.597 139.91 13.9481C142.007 12.2847 144.492 10.9641 147.409 10.0113ZM170.606 18.882C170.606 15.8061 169.722 12.9643 167.668 10.728C168.598 11.187 169.446 11.7138 170.219 12.303C171.668 13.4292 172.725 14.7358 173.448 16.2375L173.46 16.2631L173.473 16.2886C174.217 17.7761 174.622 19.486 174.622 21.4861C174.622 24.1266 173.951 25.9358 172.905 27.223L172.886 27.2473L172.866 27.2719C172.452 27.8 171.948 28.1971 171.311 28.4887L171.288 28.499L171.266 28.5095C170.65 28.8011 169.992 28.9514 169.247 28.9514C168.587 28.9514 167.984 28.8637 167.427 28.6734C167.973 27.9304 168.454 27.1319 168.87 26.2822C170.027 23.9596 170.606 21.478 170.606 18.882ZM232.437 67.5052C232.437 67.5065 232.437 67.5078 232.437 67.5091C232.436 67.5105 232.436 67.5118 232.436 67.5131L236.163 68.1297L232.437 67.5052ZM293.961 73.9274L297.204 59.0766C297.312 59.0279 297.42 58.9789 297.528 58.9295C301.611 57.0756 305.076 54.7611 307.824 51.9339L308.647 51.0876L303.548 74.5048C303.122 75.9413 302.961 77.5529 302.961 79.2408C302.961 81.2553 303.4 83.7126 305.342 85.4153L305.378 85.4467L305.415 85.4771C307.216 86.9776 309.572 87.3426 311.643 87.3426C312.618 87.3426 313.574 87.2257 314.504 86.9969C312.731 88.4328 310.843 89.5039 308.839 90.2405C306.754 91.0067 304.566 91.3936 302.252 91.3936C299.184 91.3936 297.185 90.5319 295.793 89.1448L295.782 89.1333L295.77 89.1219C294.183 87.567 293.098 85.0439 293.098 80.919C293.098 79.0091 293.368 76.6917 293.96 73.9354C293.96 73.9327 293.961 73.9301 293.961 73.9274ZM309.034 49.3087L311.312 38.8472H311.211L315.197 20.7717L305.26 22.0891L302.109 36.1852H302.201L300.495 44.0008C300.954 43.7102 301.409 43.4109 301.859 43.1028L306.056 40.2299L309.034 49.3087ZM280.281 55.8107L280.693 55.9453L280.134 56.0366L279.882 58.8991C279.434 63.9779 278.434 68.5499 276.911 72.6389C275.379 76.7126 273.444 80.1255 271.141 82.9301C268.883 85.6512 266.354 87.6781 263.558 89.0805C260.781 90.4731 257.867 91.1621 254.767 91.1621C249.367 91.1621 245.76 89.8776 243.403 87.8188L243.388 87.8053C240.796 85.5658 239.175 81.9409 239.175 76.1736C239.175 73.9926 239.405 71.5238 239.889 68.7541L239.89 68.7462C240.365 65.9889 241.099 63.1977 242.097 60.3713L242.105 60.3512L242.111 60.331C244.403 53.5949 247.603 48.4211 251.604 44.6371L251.623 44.6196C256.105 40.3223 261.287 38.0898 267.327 37.831C263.626 38.7087 260.69 41.7314 258.378 45.2956C255.727 49.3036 253.625 54.1354 252.016 59.715L252.015 59.7187C250.454 65.1516 249.629 70.1292 249.629 74.6111C249.629 76.6748 249.73 78.4871 249.97 79.9861L249.978 80.0417L249.989 80.0969C250.279 81.6149 250.793 83.1369 251.72 84.4188C252.579 85.6593 253.746 86.6301 255.19 87.226L255.27 87.2587L255.35 87.2879C256.678 87.767 258.155 87.9213 259.61 87.9213C262.217 87.9213 264.498 86.7739 266.394 85.1671L266.4 85.1622C268.305 83.5414 269.954 81.4213 271.4 78.9311C272.862 76.4133 274.085 73.5312 275.094 70.3184C276.106 67.0968 276.856 63.6749 277.354 60.0597L277.798 56.8268L274.581 55.9862C274.452 55.9524 274.367 55.9197 274.315 55.8963C274.234 55.6759 274.139 55.2702 274.139 54.588C274.139 53.4572 274.372 52.8178 274.594 52.4592C274.858 52.0331 275.18 51.7588 275.642 51.5627L278.075 50.5298L277.912 47.9369C277.747 45.311 277.3 42.7495 276.13 40.8603L276.105 40.8196L276.078 40.7796C275.577 40.0161 274.935 39.3461 274.153 38.8237C275.439 39.3962 276.442 40.1902 277.233 41.154C279.053 43.3713 280.281 47.1168 280.281 53.0255V55.8107ZM192.804 34.4491H202.489L199.643 47.4626L199.572 47.5833L192.324 81.2176L192.292 81.1688L184.591 116.693L174.482 119.065L192.804 34.4491ZM218.151 42.0643C216.672 40.4937 214.789 39.6799 212.775 39.4428C214.815 38.6564 216.993 38.2685 219.331 38.2685C223.032 38.2685 225.41 39.3353 227.018 41.0763C228.977 43.2741 230.316 47.0889 230.316 53.257C230.316 59.3062 229.531 64.9366 227.985 70.1663L227.982 70.1768C226.013 76.9116 223.238 81.8318 219.834 85.1996L219.826 85.2077C215.686 89.3297 210.608 91.3936 204.329 91.3936C201.89 91.3936 200.193 91.0185 199.05 90.4829L199.021 90.4691L198.991 90.4557C198.333 90.1612 197.758 89.6881 197.253 88.9017L196.474 87.6867C197.793 88.2812 199.219 88.5 200.609 88.5C206.041 88.5 210.43 85.6936 213.736 81.0884C216.326 77.5072 218.244 72.7218 219.642 66.9609L219.644 66.9508C220.771 62.2491 221.339 57.567 221.339 52.9097C221.339 48.7485 220.598 44.8473 218.239 42.1607L218.196 42.1117L218.151 42.0643ZM264.751 49.2809C267.194 45.5083 268.867 44.9815 269.532 44.9815C269.639 44.9815 269.728 44.9849 269.801 44.9899C269.902 45.2525 270.023 45.672 270.132 46.2938C269.353 46.9487 268.683 47.7257 268.132 48.6149C267.016 50.4168 266.579 52.478 266.579 54.588C266.579 56.308 266.885 58.05 267.75 59.6023L267.781 59.6581L267.814 59.7129C268.267 60.4641 268.828 61.0867 269.462 61.595C269.047 63.9 268.515 66.0808 267.869 68.14C266.988 70.9458 265.966 73.3105 264.83 75.268C263.677 77.252 262.532 78.6424 261.445 79.5678C260.43 80.427 259.838 80.5139 259.61 80.5139C258.783 80.5139 258.304 80.4324 258.071 80.3701C258.046 80.3509 258.015 80.3173 257.971 80.2535L257.932 80.1957L257.891 80.1394C257.822 80.0461 257.606 79.6753 257.43 78.7863C257.28 77.819 257.189 76.4468 257.189 74.6111C257.189 70.9922 257.86 66.7117 259.291 61.7295C260.75 56.6681 262.583 52.5546 264.73 49.3125L264.74 49.2967L264.751 49.2809ZM209.181 47.6331C210.203 46.9479 210.949 46.7755 211.476 46.7755C212.189 46.7755 212.439 46.9379 212.555 47.0464C213.102 47.7157 213.779 49.3775 213.779 52.9097C213.779 56.9713 213.284 61.0851 212.285 65.2565C211.006 70.5223 209.383 74.2971 207.565 76.8096L207.557 76.8215C205.273 80.0053 202.97 81.0926 200.609 81.0926C200.397 81.0926 200.223 81.0807 200.083 81.0633L206.717 50.2839C207.514 49.0342 208.351 48.1896 209.181 47.6331ZM77.9422 55.051H109.769L106.165 71.7755H74.0196L77.9422 55.051ZM83.5137 64.3681L83.9616 62.4584H100.446L100.035 64.3681H83.5137Z" stroke="#2D9CDB" stroke-width="2"/>
</g>
<defs>
<filter id="filter0_d" x="0" y="0" width="338.426" height="138.335" filterUnits="userSpaceOnUse" color-interpolation-filters="sRGB">
<feFlood flood-opacity="0" result="BackgroundImageFix"/>
<feColorMatrix in="SourceAlpha" type="matrix" values="0 0 0 0 0 0 0 0 0 0 0 0 0 0 0 0 0 0 127 0"/>
<feOffset dy="4"/>
<feGaussianBlur stdDeviation="2"/>
<feColorMatrix type="matrix" values="0 0 0 0 0 0 0 0 0 0 0 0 0 0 0 0 0 0 0.37 0"/>
<feBlend mode="normal" in2="BackgroundImageFix" result="effect1_dropShadow"/>
<feBlend mode="normal" in="SourceGraphic" in2="effect1_dropShadow" result="shape"/>
</filter>
</defs>
</svg>
